{"title":"Millennium 2, The Girl Who Played with Fire 2009 DVDrip Klam","uid":6688933,"size":1892125620,"categoryP":"video","categoryS":"movies","magnet":"?xt=urn:btih:01761ab6bfd2a4c31f4e7f4421e13d46f50493db&amp;dn=Millennium+2%2C+The+Girl+Who+Played+with+Fire+2009+DVDrip+Klam&amp;tr=udp%3A%2F%2Ftracker.openbittorrent.com%3A80&amp;tr=udp%3A%2F%2Fopen.demonii.com%3A1337&amp;tr=udp%3A%2F%2Ftracker.coppersurfer.tk%3A6969&amp;tr=udp%3A%2F%2Fexodus.desync.com%3A6969","seeders":1,"leechers":1,"uploader":"Klambake","files":-1,"time":1316510152,"description":"With: Michael Nyqvist, Noomi Rapace and Lena Endre\n\nHet tijdschrift Millennium werkt aan een reportage over Human Traffic, mensensmokkel. Vlak voor de publicatie worden twee onderzoeksjournalisten van het blad vermoord. Door deze moord worden Mikael Blomkvist en Lisbeth Salander weer herenigd.\n\nAs computer hacker Lisbeth and journalist Mikael investigate a sex-trafficking ring, Lisbeth is accused of three murders, causing her to go on the run while Mikael works to clear her name. \n\n------------------ Dutch Friends ------------------\nYou can find my Friends at: http://www.Film-Test.nl \n------ They got my dutchs subs ---- and more ------\n\nGeneral:\n\nComplete name                    : Millenium 2\\Millenium 2.avi\nFormat                           : AVI\nFormat/Info                      : Audio Video Interleave\nFile size                        : 1.76 GiB\nDuration                         : 2h 4mn\nOverall bit rate                 : 2 029 Kbps\n\nVideo:\n\nFormat                           : MPEG-4 Visual\nFormat profile                   : Simple@L3\nFormat settings, BVOP            : No\nFormat settings, QPel            : No\nFormat settings, GMC             : No warppoints\nFormat settings, Matrix          : Default (H.263)\nCodec ID                         : XVID\nCodec ID/Hint                    : XviD\nDuration                         : 2h 4mn\nBit rate                         : 1 571 Kbps\nWidth                            : 652 pixels\nHeight                           : 352 pixels\nDisplay aspect ratio             : 1.852\nFrame rate                       : 25.000 fps\nColor space                      : YUV\nChroma subsampling               : 4:2:0\nBit depth                        : 8 bits\nScan type                        : Progressive\nBits/(Pixel*Frame)               : 0.274\nStream size                      : 1.36 GiB (77%)\nWriting library                  : XviD 1.1.2 (UTC 2006-11-01)\n\nAudio:\n\nFormat                           : AC-3\nFormat/Info                      : Audio Coding 3\nMode extension                   : CM (complete main)\nCodec ID                         : 2000\nDuration                         : 2h 4mn\nBit rate mode                    : Constant\nBit rate                         : 448 Kbps\nChannel(s)                       : 6 channels\nChannel positions                : Front: L C R, Side: L R, LFE\nSampling rate                    : 48.0 KHz\nBit depth                        : 16 bits\nStream size                      : 398 MiB (22%)\nAlignment                        : Aligned on interleaves\nInterleave, duration             : 32 ms (0.80 video frame)\nInterleave, preload duration     : 32 ms\n\n\n","torrent":{"xt":"urn:btih:01761ab6bfd2a4c31f4e7f4421e13d46f50493db","amp;dn":"Millennium+2%2C+The+Girl+Who+Played+with+Fire+2009+DVDrip+Klam","amp;tr":["udp%3A%2F%2Ftracker.openbittorrent.com%3A80","udp%3A%2F%2Fopen.demonii.com%3A1337","udp%3A%2F%2Ftracker.coppersurfer.tk%3A6969","udp%3A%2F%2Fexodus.desync.com%3A6969"],"infoHash":"01761ab6bfd2a4c31f4e7f4421e13d46f50493db","infoHashBuffer":{"type":"Buffer","data":[1,118,26,182,191,210,164,195,31,78,127,68,33,225,61,70,245,4,147,219]},"announce":[],"urlList":[]}}